<?xml version="1.0" encoding="UTF-8" standalone="no"?>
<!-- Created with Inkscape (http://www.inkscape.org/) -->

<svg
   version="1.0"
   viewBox="0 0 165 140"
   width="193.1198"
   height="128"
   id="svg2"
   xmlns="http://www.w3.org/2000/svg"
>
  <defs
     id="defs5" />
  <path
     d="M 93,0 0,81 v 1 l 37,22 -5,4 22,20 h 128 v -10 l 1,-3 6,-3 3,-7 -1,-13 v -5 l 2,-6 -40,-51 3,-10 V 19 L 146,21 133,4 131,3 95,0 Z m 0,1 v 20 l -22,5 v 1 c -4,10 -4,22 2,32 v 2 c -4,9 -2,19 3,27 h -2 l -4,4 C 52,64 53,37 69,22 84,8 93,1 93,1 Z m 2,0 36,3 v 20 l -19,5 v 1 h 1 l -3,14 c -5,-7 -1,-18 3,-25 v -1 l -17.5,2.5 z m 38,4 12,16 -11.5,2.5 z m -24,15 -13.5,5 v -2.5 z m 45,0.5 -6,2.5 -1,-1 z m -8,2 1,1 -13.5,4.5 V 25.5 Z M 93,23 v 2 c -5,2 -11,3 -16,1 z m 38,3 v 2 l -13,1 z m 22,5 39,50 -24,4 -7,5 c -4,-10 -2,-22 1,-32 h 1 v -2 h -1 c -7,-7 -11,-15 -9,-25 z m -44,22 -12,2 v -1 z m -15,1 v 1.5 L 76,59 c 5.130294,-4.175202 12.927822,-4.616311 18,-5 z m 17,0.5 -14,4.5 v -2 z m -17,3 V 60 c -5,1 -11,1 -16,0 z m 64,-0.5 -22,3 v -2 c 7,-1.5 14.5,-1 22,-1 z m 2,1 c -7.5,4 -15.5,6.5 -24,7 v -3 z m -28,1 v 1.5 L 122,63 Z m -18,3 2,3 -3,8 c 0,0 -1,-7 1,-11 z m 18,0.5 V 65 H 119 Z M 69,92 c -8,10 -17.5,13 -29,8 L 2,81 c 0,0 3,-4 7,-6 22,-12.5 43,6 60,17 z m 26,-6 v 2 l -13,1 c 4,-1.5 8.5,-2.5 13,-3 z m 3,0 14,1 -14,1 z m 14,2 c 0.5,4.5 3.31835,10.819349 4,12 v 2 l 18,-1 v 12 c -14,2 -20,-5 -25,-17 l -6,-1 -1,-4 h -4 v -2 z m -17,1 v 1 l -6.5,-0.5 z m 39,7 v 3 l -13,1 z m 3,0 17,1 -17,2 z m 17,3 c 0,11 -7,14.5 -17,14 v -12 z"
     fill="#ffffff"
     id="path12357" />
</svg>
