<?xml version="1.0" encoding="UTF-8" standalone="no"?>
<!-- Created with Inkscape (http://www.inkscape.org/) -->
<svg
   xmlns:svg="http://www.w3.org/2000/svg"
   xmlns="http://www.w3.org/2000/svg"
   version="1.0"
   width="193.1198"
   height="128"
   id="svg2">
  <defs
     id="defs5" />
  <path
     d="M 93,0 L 0,81 L 0,82 L 37,104 L 32,108 L 54,128 L 182,128 L 182,118 L 183,115 L 189,112 L 192,105 L 191,92 L 191,87 L 193,81 L 153,30 L 156,20 L 156,19 L 146,21 L 133,4 L 131,3 L 95,0 L 93,0 z M 93,1 L 93,21 L 71,26 L 71,27 C 67,37 67,49 73,59 L 73,61 C 69,70 71,80 76,88 L 74,88 L 70,92 C 52,64 53,37 69,22 C 84,8 93,1 93,1 z M 95,1 L 131,4 L 131,24 L 112,29 L 112,30 L 113,30 L 110,44 C 105,37 109,26 113,19 L 113,18 L 95.5,20.5 L 95,1 z M 133,5 L 145,21 L 133.5,23.5 L 133,5 z M 109,20 L 95.5,25 L 95.5,22.5 L 109,20 z M 154,20.5 L 148,23 L 147,22 L 154,20.5 z M 146,22.5 L 147,23.5 L 133.5,28 L 133.5,25.5 L 146,22.5 z M 93,23 L 93,25 C 88,27 82,28 77,26 L 93,23 z M 131,26 L 131,28 L 118,29 L 131,26 z M 153,31 L 192,81 L 168,85 L 161,90 C 157,80 159,68 162,58 L 163,58 L 163,56 L 162,56 C 155,49 151,41 153,31 z M 109,53 L 97,55 L 97,54 L 109,53 z M 94,54 L 94,55.5 L 76,59 C 81.130294,54.824798 88.927822,54.383689 94,54 z M 111,54.5 L 97,59 L 97,57 L 111,54.5 z M 94,57.5 L 94,60 C 89,61 83,61 78,60 L 94,57.5 z M 158,57 L 136,60 L 136,58 C 143,56.5 150.5,57 158,57 z M 160,58 C 152.5,62 144.5,64.5 136,65 L 136,62 L 160,58 z M 132,59 L 132,60.5 L 122,63 L 132,59 z M 114,62 L 116,65 L 113,73 C 113,73 112,66 114,62 z M 132,62.5 L 132,65 L 119,65 L 132,62.5 z M 69,92 C 61,102 51.5,105 40,100 L 2,81 C 2,81 5,77 9,75 C 31,62.5 52,81 69,92 z M 95,86 L 95,88 L 82,89 C 86,87.5 90.5,86.5 95,86 z M 98,86 L 112,87 L 98,88 L 98,86 z M 112,88 C 112.5,92.5 115.31835,98.819349 116,100 L 116,102 L 134,101 L 134,113 C 120,115 114,108 109,96 L 103,95 L 102,91 L 98,91 L 98,89 L 112,88 z M 95,89 L 95,90 L 88.5,89.5 L 95,89 z M 134,96 L 134,99 L 121,100 L 134,96 z M 137,96 L 154,97 L 137,99 L 137,96 z M 154,99 C 154,110 147,113.5 137,113 L 137,101 L 154,99 z "
     style="fill:#000000;fill-rule:evenodd;stroke:none;stroke-width:1px;stroke-linecap:butt;stroke-linejoin:miter;stroke-opacity:1"
     id="path12357" />
</svg>
